# Blender v3.5.0 OBJ File: ''
# www.blender.org
mtllib Hammer.mtl
o 立方体_立方体.001
v 12.206379 -6.231601 -3.611893
v -12.206379 -6.231600 -3.611892
v 12.206379 6.231600 -3.611893
v -12.206379 6.231601 -3.611892
v 12.206379 -6.231601 3.611892
v -12.206379 -6.231600 3.611893
v 12.206379 6.231600 3.611892
v -12.206379 6.231601 3.611893
vt 0.965503 0.280479
vt 0.967383 0.650002
vt 0.659620 0.650619
vt 0.658558 0.286961
vt 0.499977 0.653220
vt 0.505946 0.284674
vt 0.203932 0.652560
vt 0.201479 0.284979
vt 0.048509 0.649634
vt 0.045392 0.285717
vt 0.505896 0.132788
vt 0.201362 0.132273
vt 0.499317 0.802215
vt 0.203272 0.801555
vn -0.0000 0.0000 -1.0000
vn 0.0000 1.0000 0.0000
vn 0.0000 0.0000 1.0000
vn -0.0000 -1.0000 0.0000
vn 1.0000 0.0000 0.0000
vn -1.0000 0.0000 0.0000
usemtl マテリアル.001
s off
f 1/1/1 2/2/1 4/3/1 3/4/1
f 3/4/2 4/3/2 8/5/2 7/6/2
f 7/6/3 8/5/3 6/7/3 5/8/3
f 5/8/4 6/7/4 2/9/4 1/10/4
f 3/11/5 7/6/5 5/8/5 1/12/5
f 8/5/6 4/13/6 2/14/6 6/7/6
