# Blender v3.5.0 OBJ File: 'enemy_o_l.blend'
# www.blender.org
mtllib enemy.mtl
o 立方体.001_立方体.003
v 1.848710 0.874489 1.955794
v 1.848710 1.097676 2.160578
v 1.775721 1.097676 1.955794
v 1.848710 1.937003 2.160578
v 1.848710 2.160190 1.955794
v 1.775721 1.937003 1.955794
v 1.848710 0.874489 1.185673
v 1.775721 1.097676 1.185673
v 1.848710 1.097676 0.980890
v 1.848710 2.160190 1.185673
v 1.848710 1.937003 0.980890
v 1.775721 1.937003 1.185673
v 2.123197 0.874489 1.955794
v 2.196187 1.097676 1.955794
v 2.123197 1.097676 2.160578
v 2.123197 2.160190 1.955794
v 2.123197 1.937003 2.160578
v 2.196187 1.937003 1.955794
v 2.123197 0.874489 1.185673
v 2.123197 1.097676 0.980890
v 2.196187 1.097676 1.185673
v 2.123197 2.160190 1.185673
v 2.196187 1.937003 1.185673
v 2.123197 1.937003 0.980890
v 0.396345 1.919854 -1.000000
v 0.396345 2.523509 -0.396345
v 0.396345 0.523509 -0.396345
v 0.396345 1.127164 -1.000000
v 0.396345 2.523509 0.396345
v 0.396345 1.919854 1.000000
v 0.396345 1.127164 1.000000
v 0.396345 0.523509 0.396345
v -0.396345 1.919854 -1.000000
v -1.000000 1.919854 -0.396345
v -0.396345 2.523509 -0.396345
v -1.000000 1.127164 -0.396345
v -0.396345 1.127164 -1.000000
v -0.396345 0.523509 -0.396345
v -1.000000 1.919854 0.396345
v -0.396345 1.919854 1.000000
v -0.396345 2.523509 0.396345
v -0.396345 0.523509 0.396345
v -0.396345 1.127164 1.000000
v -1.000000 1.127164 0.396345
v 0.396345 1.127164 1.204428
v 0.396345 1.919854 1.204428
v -0.396345 1.919854 1.204428
v -0.396345 1.127164 1.204428
v -0.396345 1.127164 -1.213430
v -0.396345 1.919854 -1.213430
v 0.396345 1.919854 -1.213430
v 0.396345 1.127164 -1.213430
v 0.396345 1.127164 1.931548
v 0.396345 1.919854 1.931548
v -0.396345 1.919854 1.430685
v -0.396345 1.127164 1.430685
v -0.396345 1.127164 -1.498452
v -0.396345 1.919854 -1.498452
v 0.396345 1.919854 -1.940550
v 0.396345 1.127164 -1.940550
v 1.954549 1.919854 1.204428
v 1.954549 1.919854 1.931548
v 1.954549 1.127164 1.931548
v 1.954549 1.127164 1.204428
v 1.954549 1.127164 -1.213430
v 1.954549 1.127164 -1.940550
v 1.954549 1.919854 -1.940550
v 1.954549 1.919854 -1.213430
v 1.243781 1.919854 1.204428
v 1.243781 1.919854 1.931548
v 1.243781 1.127164 1.931548
v 1.243781 1.127164 1.204428
v 1.243781 1.127164 -1.213430
v 1.243781 1.127164 -1.940550
v 1.243781 1.919854 -1.940550
v 1.243781 1.919854 -1.213430
v 1.000000 1.747135 -0.223626
v 0.837159 2.001274 -0.477765
v 1.000000 1.299883 -0.223626
v 0.837159 1.045744 -0.477765
v 1.000000 1.747135 0.223626
v 0.837159 2.001274 0.477765
v 1.000000 1.299883 0.223626
v 0.837159 1.045744 0.477765
v 0.396345 0.423406 -0.396345
v -0.396345 0.423406 0.396345
v -0.396345 0.423406 -0.396345
v 0.396345 0.423406 -0.396345
v 0.396345 0.423406 0.396345
v -0.396345 0.423406 0.396345
v 1.848710 0.874489 -1.198753
v 1.848710 1.097676 -0.993969
v 1.775721 1.097676 -1.198753
v 1.848710 1.937003 -0.993969
v 1.848710 2.160190 -1.198753
v 1.775721 1.937003 -1.198753
v 1.848710 0.874489 -1.968874
v 1.775721 1.097676 -1.968874
v 1.848710 1.097676 -2.173657
v 1.848710 2.160190 -1.968874
v 1.848710 1.937003 -2.173657
v 1.775721 1.937003 -1.968874
v 2.123197 0.874489 -1.198753
v 2.196187 1.097676 -1.198753
v 2.123197 1.097676 -0.993969
v 2.123197 2.160190 -1.198753
v 2.123197 1.937003 -0.993969
v 2.196187 1.937003 -1.198753
v 2.123197 0.874489 -1.968874
v 2.123197 1.097676 -2.173657
v 2.196187 1.097676 -1.968874
v 2.123197 2.160190 -1.968874
v 2.196187 1.937003 -1.968874
v 2.123197 1.937003 -2.173657
vt 0.581602 0.793398
vt 0.418398 0.956602
vt 0.418398 0.793398
vt 0.581602 0.543398
vt 0.418398 0.706602
vt 0.418398 0.543398
vt 0.831602 0.543398
vt 0.668398 0.706602
vt 0.668398 0.543398
vt 0.581602 0.043398
vt 0.418398 0.206602
vt 0.418398 0.043398
vt 0.581602 0.293398
vt 0.418398 0.456602
vt 0.418398 0.293398
vt 0.168398 0.706602
vt 0.168398 0.750000
vt 0.125000 0.706602
vt 0.581602 0.000000
vt 0.625000 0.043398
vt 0.168398 0.543398
vt 0.125000 0.543398
vt 0.168398 0.500000
vt 0.625000 0.206602
vt 0.581602 0.250000
vt 0.581602 0.206602
vt 0.331602 0.706602
vt 0.375000 0.706602
vt 0.331602 0.750000
vt 0.625000 0.793398
vt 0.581602 0.750000
vt 0.331602 0.543398
vt 0.331602 0.500000
vt 0.375000 0.543398
vt 0.625000 0.456602
vt 0.581602 0.500000
vt 0.581602 0.456602
vt 0.418398 0.000000
vt 0.625000 0.293398
vt 0.581602 0.706602
vt 0.625000 0.956602
vt 0.000000 0.000000
vt 0.000000 0.000000
vt 0.000000 0.000000
vt 0.000000 0.000000
vt 0.000000 0.000000
vt 0.000000 0.000000
vt 0.000000 0.000000
vt 0.000000 0.000000
vt 0.000000 0.000000
vt 0.000000 0.000000
vt 0.000000 0.000000
vt 0.000000 0.000000
vt 0.000000 0.000000
vt 0.000000 0.000000
vt 0.000000 0.000000
vt 0.000000 0.000000
vt 0.000000 0.000000
vt 0.000000 0.000000
vt 0.000000 0.000000
vt 0.000000 0.000000
vt 0.000000 0.000000
vt 0.000000 0.000000
vt 0.000000 0.000000
vt 0.000000 0.000000
vt 0.000000 0.000000
vt 0.000000 0.000000
vt 0.000000 0.000000
vt 0.000000 0.000000
vt 0.000000 0.000000
vt 0.000000 0.000000
vt 0.000000 0.000000
vt 0.000000 0.000000
vt 0.000000 0.000000
vt 0.000000 0.000000
vt 0.000000 0.000000
vt 0.000000 0.000000
vt 0.000000 0.000000
vt 0.000000 0.000000
vt 0.000000 0.000000
vt 0.000000 0.000000
vt 0.000000 0.000000
vt 0.000000 0.000000
vt 0.000000 0.000000
vt 0.000000 0.000000
vt 0.000000 0.000000
vt 0.000000 0.000000
vt 0.000000 0.000000
vt 0.000000 0.000000
vt 0.000000 0.000000
vt 0.000000 0.000000
vt 0.000000 0.000000
vt 0.000000 0.000000
vt 0.000000 0.000000
vt 0.000000 0.000000
vt 0.000000 0.000000
vt 0.000000 0.000000
vt 0.000000 0.000000
vt 0.000000 0.000000
vt 0.000000 0.000000
vt 0.000000 0.000000
vt 0.000000 0.000000
vt 0.000000 0.000000
vt 0.000000 0.000000
vt 0.000000 0.000000
vt 0.000000 0.000000
vt 0.000000 0.000000
vt 0.581602 0.793398
vt 0.418398 0.956602
vt 0.418398 0.793398
vt 0.581602 0.543398
vt 0.418398 0.706602
vt 0.418398 0.543398
vt 0.831602 0.543398
vt 0.668398 0.706602
vt 0.668398 0.543398
vt 0.581602 0.043398
vt 0.418398 0.206602
vt 0.418398 0.043398
vt 0.581602 0.293398
vt 0.418398 0.456602
vt 0.418398 0.293398
vt 0.168398 0.706602
vt 0.168398 0.750000
vt 0.125000 0.706602
vt 0.581602 0.000000
vt 0.625000 0.043398
vt 0.168398 0.543398
vt 0.125000 0.543398
vt 0.168398 0.500000
vt 0.625000 0.206602
vt 0.581602 0.250000
vt 0.581602 0.206602
vt 0.331602 0.706602
vt 0.375000 0.706602
vt 0.331602 0.750000
vt 0.625000 0.793398
vt 0.581602 0.750000
vt 0.331602 0.543398
vt 0.331602 0.500000
vt 0.375000 0.543398
vt 0.625000 0.456602
vt 0.581602 0.500000
vt 0.581602 0.456602
vt 0.418398 0.000000
vt 0.625000 0.293398
vt 0.581602 0.706602
vt 0.625000 0.956602
vt 0.581602 0.956602
vt 0.831602 0.706602
vt 0.581602 0.956602
vt 0.831602 0.706602
vn 0.0000 0.0000 1.0000
vn 1.0000 0.0000 0.0000
vn 0.0000 1.0000 0.0000
vn -1.0000 0.0000 0.0000
vn 0.0000 0.0000 -1.0000
vn -0.9002 -0.2944 0.3209
vn -0.9002 0.2944 0.3209
vn -0.9002 -0.2944 -0.3209
vn -0.9002 0.2944 -0.3209
vn 0.9002 -0.2944 0.3209
vn 0.9002 0.2944 0.3209
vn 0.9002 -0.2944 -0.3209
vn 0.9002 0.2944 -0.3209
vn -0.9505 -0.3108 0.0000
vn -0.9420 0.0000 0.3357
vn -0.9505 0.3108 0.0000
vn -0.9420 0.0000 -0.3357
vn 0.0000 -0.6761 -0.7368
vn 0.0000 0.6761 -0.7368
vn 0.9420 0.0000 -0.3357
vn 0.9505 -0.3108 0.0000
vn 0.9505 0.3108 0.0000
vn 0.9420 0.0000 0.3357
vn 0.0000 -0.6761 0.7368
vn 0.0000 0.6761 0.7368
vn 0.0000 -1.0000 0.0000
vn 0.5774 0.5774 -0.5774
vn 0.7642 0.6450 0.0000
vn 0.7642 0.0000 0.6450
vn 0.5774 -0.5774 0.5774
vn -0.5774 0.5774 -0.5774
vn -0.5774 -0.5774 -0.5774
vn -0.5774 0.5774 0.5774
vn -0.5774 -0.5774 0.5774
vn -0.7071 -0.7071 0.0000
vn 0.0000 -0.7071 -0.7071
vn -0.7071 0.0000 0.7071
vn 0.5774 0.5774 0.5774
vn -0.7071 0.0000 -0.7071
vn 0.0000 0.7071 0.7071
vn 0.7642 -0.6450 0.0000
vn 0.0000 -0.7071 0.7071
vn -0.7071 0.7071 0.0000
vn 0.0000 0.7071 -0.7071
vn 0.5774 -0.5774 -0.5774
vn -0.5342 0.0000 0.8454
vn -0.4871 0.0000 -0.8734
vn 0.8420 0.0000 -0.5395
vn 0.8420 0.0000 0.5395
vn 0.8420 0.5395 0.0000
vn 0.8420 -0.5395 0.0000
vn 0.7642 0.0000 -0.6450
vn 0.7071 0.0000 0.7071
usemtl Material
s off
f 17/1/1 2/2/1 15/3/1
f 23/4/2 14/5/2 21/6/2
f 10/7/3 16/8/3 22/9/3
f 6/10/4 8/11/4 3/12/4
f 11/13/5 20/14/5 9/15/5
f 1/16/6 2/17/6 3/18/6
f 4/19/7 5/20/7 6/10/7
f 7/21/8 8/22/8 9/23/8
f 10/24/9 11/25/9 12/26/9
f 13/27/10 14/28/10 15/29/10
f 16/30/11 17/1/11 18/31/11
f 19/32/12 20/33/12 21/34/12
f 22/35/13 23/36/13 24/37/13
f 1/16/14 8/22/14 7/21/14
f 4/19/15 3/12/15 2/38/15
f 10/24/16 6/10/16 5/20/16
f 9/15/17 12/26/17 11/13/17
f 7/21/18 20/33/18 19/32/18
f 22/35/19 11/13/19 10/39/19
f 21/6/20 24/37/20 23/4/20
f 19/32/21 14/5/21 13/27/21
f 16/8/22 23/4/22 22/9/22
f 15/3/23 18/40/23 17/1/23
f 13/27/24 2/17/24 1/16/24
f 5/41/25 17/1/25 16/30/25
f 19/32/26 1/16/26 7/21/26
f 39/42/4 36/43/4 44/44/4
f 70/45/26 61/46/26 62/47/26
f 35/48/3 29/49/3 26/50/3
f 25/51/27 26/50/27 78/52/27
f 29/49/28 78/52/28 26/50/28
f 31/53/29 82/54/29 30/55/29
f 84/56/30 31/53/30 32/57/30
f 33/58/31 34/59/31 35/48/31
f 36/43/32 37/60/32 38/61/32
f 39/42/33 40/62/33 41/63/33
f 42/64/34 43/65/34 44/44/34
f 42/64/35 36/43/35 38/61/35
f 38/61/36 28/66/36 27/67/36
f 77/68/2 83/69/2 79/70/2
f 40/62/37 44/44/37 43/65/37
f 82/54/38 29/49/38 30/55/38
f 37/60/39 34/59/39 33/58/39
f 41/63/40 30/55/40 29/49/40
f 27/67/41 84/56/41 32/57/41
f 32/57/42 43/65/42 42/64/42
f 35/48/43 39/42/43 41/63/43
f 26/50/44 33/58/44 35/48/44
f 27/67/45 28/66/45 80/71/45
f 54/72/46 56/73/46 53/74/46
f 46/75/2 31/53/2 30/55/2
f 47/76/3 30/55/3 40/62/3
f 48/77/4 40/62/4 43/65/4
f 45/78/26 43/65/26 31/53/26
f 50/79/4 37/60/4 33/58/4
f 51/80/3 33/58/3 25/51/3
f 52/81/2 25/51/2 28/66/2
f 49/82/26 28/66/26 37/60/26
f 55/83/3 46/75/3 47/76/3
f 56/73/4 47/76/4 48/77/4
f 45/78/26 56/73/26 48/77/26
f 58/84/47 60/85/47 57/86/47
f 58/84/4 49/82/4 50/79/4
f 51/80/3 58/84/3 50/79/3
f 70/45/2 72/87/2 69/88/2
f 57/86/26 52/81/26 49/82/26
f 62/47/3 46/75/3 54/72/3
f 63/89/1 54/72/1 53/74/1
f 64/90/26 53/74/26 45/78/26
f 61/46/5 45/78/5 46/75/5
f 66/91/26 52/81/26 60/85/26
f 67/92/5 60/85/5 59/93/5
f 68/94/3 59/93/3 51/80/3
f 65/95/1 51/80/1 52/81/1
f 71/96/5 62/47/5 63/89/5
f 72/87/3 63/89/3 64/90/3
f 69/88/1 64/90/1 61/46/1
f 74/97/2 76/98/2 73/99/2
f 74/97/3 65/95/3 66/91/3
f 75/100/1 66/91/1 67/92/1
f 76/98/26 67/92/26 68/94/26
f 73/99/5 68/94/5 65/95/5
f 79/70/48 78/52/48 77/68/48
f 81/101/49 84/56/49 83/69/49
f 77/68/50 82/54/50 81/101/50
f 83/69/51 80/71/51 79/70/51
f 80/71/52 25/51/52 78/52/52
f 39/42/4 34/59/4 36/43/4
f 70/45/26 69/88/26 61/46/26
f 35/48/3 41/63/3 29/49/3
f 29/49/28 82/54/28 78/52/28
f 31/53/29 84/56/29 82/54/29
f 42/64/35 44/44/35 36/43/35
f 38/61/36 37/60/36 28/66/36
f 77/68/2 81/101/2 83/69/2
f 40/62/37 39/42/37 44/44/37
f 37/60/39 36/43/39 34/59/39
f 41/63/40 40/62/40 30/55/40
f 27/67/41 80/71/41 84/56/41
f 32/57/42 31/53/42 43/65/42
f 35/48/43 34/59/43 39/42/43
f 26/50/44 25/51/44 33/58/44
f 54/72/46 55/83/46 56/73/46
f 46/75/2 45/78/2 31/53/2
f 47/76/3 46/75/3 30/55/3
f 48/77/4 47/76/4 40/62/4
f 45/78/26 48/77/26 43/65/26
f 50/79/4 49/82/4 37/60/4
f 51/80/3 50/79/3 33/58/3
f 52/81/2 51/80/2 25/51/2
f 49/82/26 52/81/26 28/66/26
f 55/83/3 54/72/3 46/75/3
f 56/73/4 55/83/4 47/76/4
f 45/78/26 53/74/26 56/73/26
f 58/84/47 59/93/47 60/85/47
f 58/84/4 57/86/4 49/82/4
f 51/80/3 59/93/3 58/84/3
f 70/45/2 71/96/2 72/87/2
f 57/86/26 60/85/26 52/81/26
f 62/47/3 61/46/3 46/75/3
f 63/89/1 62/47/1 54/72/1
f 64/90/26 63/89/26 53/74/26
f 61/46/5 64/90/5 45/78/5
f 66/91/26 65/95/26 52/81/26
f 67/92/5 66/91/5 60/85/5
f 68/94/3 67/92/3 59/93/3
f 65/95/1 68/94/1 51/80/1
f 71/96/5 70/45/5 62/47/5
f 72/87/3 71/96/3 63/89/3
f 69/88/1 72/87/1 64/90/1
f 74/97/2 75/100/2 76/98/2
f 74/97/3 73/99/3 65/95/3
f 75/100/1 74/97/1 66/91/1
f 76/98/26 75/100/26 67/92/26
f 73/99/5 76/98/5 68/94/5
f 79/70/48 80/71/48 78/52/48
f 81/101/49 82/54/49 84/56/49
f 77/68/50 78/52/50 82/54/50
f 83/69/51 84/56/51 80/71/51
f 80/71/52 28/66/52 25/51/52
f 85/102/5 38/61/5 27/67/5
f 89/103/2 27/67/2 32/57/2
f 87/104/4 42/64/4 38/61/4
f 88/105/39 42/64/39 27/67/39
f 90/106/1 32/57/1 42/64/1
f 85/102/26 86/107/26 87/104/26
f 88/105/26 89/103/26 90/106/26
f 86/107/53 27/67/53 42/64/53
f 107/108/1 92/109/1 105/110/1
f 113/111/2 104/112/2 111/113/2
f 100/114/3 106/115/3 112/116/3
f 96/117/4 98/118/4 93/119/4
f 101/120/5 110/121/5 99/122/5
f 91/123/6 92/124/6 93/125/6
f 94/126/7 95/127/7 96/117/7
f 97/128/8 98/129/8 99/130/8
f 100/131/9 101/132/9 102/133/9
f 103/134/10 104/135/10 105/136/10
f 106/137/11 107/108/11 108/138/11
f 109/139/12 110/140/12 111/141/12
f 112/142/13 113/143/13 114/144/13
f 91/123/14 98/129/14 97/128/14
f 94/126/15 93/119/15 92/145/15
f 100/131/16 96/117/16 95/127/16
f 99/122/17 102/133/17 101/120/17
f 97/128/18 110/140/18 109/139/18
f 112/142/19 101/120/19 100/146/19
f 111/113/20 114/144/20 113/111/20
f 109/139/21 104/112/21 103/134/21
f 106/115/22 113/111/22 112/116/22
f 105/110/23 108/147/23 107/108/23
f 103/134/24 92/124/24 91/123/24
f 95/148/25 107/108/25 106/137/25
f 109/139/26 91/123/26 97/128/26
f 17/1/1 4/149/1 2/2/1
f 23/4/2 18/40/2 14/5/2
f 10/7/3 5/150/3 16/8/3
f 6/10/4 12/26/4 8/11/4
f 11/13/5 24/37/5 20/14/5
f 1/16/14 3/18/14 8/22/14
f 4/19/15 6/10/15 3/12/15
f 10/24/16 12/26/16 6/10/16
f 9/15/17 8/11/17 12/26/17
f 7/21/18 9/23/18 20/33/18
f 22/35/19 24/37/19 11/13/19
f 21/6/20 20/14/20 24/37/20
f 19/32/21 21/6/21 14/5/21
f 16/8/22 18/40/22 23/4/22
f 15/3/23 14/5/23 18/40/23
f 13/27/24 15/29/24 2/17/24
f 5/41/25 4/149/25 17/1/25
f 19/32/26 13/27/26 1/16/26
f 85/102/5 87/104/5 38/61/5
f 89/103/2 88/105/2 27/67/2
f 87/104/4 86/107/4 42/64/4
f 88/105/39 90/106/39 42/64/39
f 90/106/1 89/103/1 32/57/1
f 86/107/53 85/102/53 27/67/53
f 107/108/1 94/151/1 92/109/1
f 113/111/2 108/147/2 104/112/2
f 100/114/3 95/152/3 106/115/3
f 96/117/4 102/133/4 98/118/4
f 101/120/5 114/144/5 110/121/5
f 91/123/14 93/125/14 98/129/14
f 94/126/15 96/117/15 93/119/15
f 100/131/16 102/133/16 96/117/16
f 99/122/17 98/118/17 102/133/17
f 97/128/18 99/130/18 110/140/18
f 112/142/19 114/144/19 101/120/19
f 111/113/20 110/121/20 114/144/20
f 109/139/21 111/113/21 104/112/21
f 106/115/22 108/147/22 113/111/22
f 105/110/23 104/112/23 108/147/23
f 103/134/24 105/136/24 92/124/24
f 95/148/25 94/151/25 107/108/25
f 109/139/26 103/134/26 91/123/26
