# Blender v3.5.0 OBJ File: ''
# www.blender.org
mtllib wall.mtl
o Cube
v -0.593278 1.669373 -0.227205
v -0.592197 -0.013511 -0.224376
v 0.588224 1.659957 -0.216649
v 0.594254 -0.013511 -0.218870
v -0.594254 1.668491 0.218870
v -0.594254 -0.013511 0.218870
v 0.589561 1.664747 0.223377
v 0.592197 -0.013511 0.224376
vt 0.875000 0.500000
vt 0.625000 0.750000
vt 0.625000 0.500000
vt 0.375000 1.000000
vt 0.375000 0.750000
vt 0.625000 0.000000
vt 0.375000 0.250000
vt 0.375000 0.000000
vt 0.375000 0.500000
vt 0.125000 0.750000
vt 0.125000 0.500000
vt 0.625000 0.250000
vt 0.875000 0.750000
vt 0.625000 1.000000
vn 0.0080 1.0000 0.0020
vn 1.0000 0.0036 0.0046
vn -0.0046 0.0006 1.0000
vn 0.0000 -1.0000 0.0000
vn 0.0046 -0.0017 -1.0000
vn -1.0000 0.0000 -0.0046
vn 0.0032 0.9999 -0.0109
vn 1.0000 0.0016 -0.0031
vn -0.0038 0.0000 1.0000
vn 0.0089 0.0014 -1.0000
vn -1.0000 -0.0006 -0.0022
usemtl Material
s off
f 5/1/1 3/2/1 1/3/1
f 3/2/2 8/4/2 4/5/2
f 7/6/3 6/7/3 8/8/3
f 2/9/4 8/10/4 6/11/4
f 1/3/5 4/5/5 2/9/5
f 5/12/6 2/9/6 6/7/6
f 5/1/7 7/13/7 3/2/7
f 3/2/8 7/14/8 8/4/8
f 7/6/9 5/12/9 6/7/9
f 2/9/4 4/5/4 8/10/4
f 1/3/10 3/2/10 4/5/10
f 5/12/11 1/3/11 2/9/11
